<svg xmlns="http://www.w3.org/2000/svg" width="26.58" height="16.547" viewBox="0 0 26.58 16.547">
  <g id="behance-big-logo" transform="translate(0 -90.244)">
    <path id="Behance_3_" d="M24,92.585H17.341V90.934H24ZM12.912,99.371a4.376,4.376,0,0,1,.639,2.42,4.838,4.838,0,0,1-.73,2.642,4.62,4.62,0,0,1-1.169,1.3,4.568,4.568,0,0,1-1.869.828,11.144,11.144,0,0,1-2.335.229H0V90.244H7.985c2.019.032,3.44.617,4.283,1.763a4.206,4.206,0,0,1,.761,2.525,3.714,3.714,0,0,1-.764,2.44A3.93,3.93,0,0,1,11,97.91,3.654,3.654,0,0,1,12.912,99.371Zm-9.1-2.607h3.5a3.324,3.324,0,0,0,1.751-.408A1.562,1.562,0,0,0,9.733,94.9a1.481,1.481,0,0,0-.892-1.528,6.3,6.3,0,0,0-1.95-.259H3.815Zm6.255,4.791a1.761,1.761,0,0,0-1.051-1.768A4.066,4.066,0,0,0,7.363,99.5H3.815v4.408H7.308a4.011,4.011,0,0,0,1.674-.288A2.1,2.1,0,0,0,10.07,101.555Zm16.4-2.691a16.28,16.28,0,0,1,.105,2.353H17.957a2.786,2.786,0,0,0,1.232,2.494,3.076,3.076,0,0,0,1.709.456,2.638,2.638,0,0,0,1.718-.542,2.5,2.5,0,0,0,.645-.824H26.42a3.918,3.918,0,0,1-1.155,2.149,5.769,5.769,0,0,1-4.451,1.721,6.429,6.429,0,0,1-4.176-1.455c-1.2-.967-1.813-2.549-1.813-4.733a6.415,6.415,0,0,1,1.634-4.732,5.693,5.693,0,0,1,4.235-1.642,6.8,6.8,0,0,1,2.792.554,4.737,4.737,0,0,1,2.037,1.753A5.889,5.889,0,0,1,26.473,98.864Zm-3.112.307a2.563,2.563,0,0,0-.828-1.866,2.717,2.717,0,0,0-1.838-.646,2.485,2.485,0,0,0-1.847.676,3.248,3.248,0,0,0-.826,1.834l5.34,0Z" fill="#fff"/>
  </g>
</svg>
