<svg xmlns="http://www.w3.org/2000/svg" width="25.998" height="25.996" viewBox="0 0 25.998 25.996"><g transform="translate(-216 -276)"><g transform="translate(216 275.999)"><path d="M25.73,10.384a12.6,12.6,0,0,0-.76-2.443,12.807,12.807,0,0,0-1.195-2.209,13.184,13.184,0,0,0-1.588-1.923,13.037,13.037,0,0,0-4.131-2.786,13.055,13.055,0,0,0-10.117,0,13.039,13.039,0,0,0-2.209,1.2A13.46,13.46,0,0,0,3.806,3.809,13.07,13.07,0,0,0,1.023,7.941a12.753,12.753,0,0,0-.758,2.443,13.05,13.05,0,0,0,0,5.233,12.806,12.806,0,0,0,.758,2.444,13.111,13.111,0,0,0,2.783,4.131,13.023,13.023,0,0,0,11.808,3.541,12.678,12.678,0,0,0,2.442-.758,13.044,13.044,0,0,0,2.209-1.2,12.9,12.9,0,0,0,1.922-1.582,13.245,13.245,0,0,0,1.588-1.924,13.034,13.034,0,0,0,1.955-4.651A12.794,12.794,0,0,0,26,13,12.928,12.928,0,0,0,25.73,10.384ZM13,1.9a11.045,11.045,0,0,1,7.331,2.771c-.028.044-1.608,2.45-5.8,4.021a56.615,56.615,0,0,0-4.146-6.478A11.1,11.1,0,0,1,13,1.9Zm-2.659.324,0,0-.031.006ZM8.26,2.961a66.016,66.016,0,0,1,4.123,6.395A41.053,41.053,0,0,1,2.135,10.711,11.113,11.113,0,0,1,8.26,2.961ZM4.737,20.413A11.05,11.05,0,0,1,1.895,13c0-.117.008-.234.01-.35a40.751,40.751,0,0,0,11.4-1.583c.317.622.622,1.257.9,1.888-.149.042-.292.085-.438.13A17.554,17.554,0,0,0,4.737,20.413ZM13,24.1a11.046,11.046,0,0,1-6.817-2.365.074.074,0,0,1-.006.018s-.1-.074-.247-.193c.079.064.173.112.253.178.084-.174,2.252-4.67,8.706-6.918l.072-.024a45.979,45.979,0,0,1,2.371,8.429A11.094,11.094,0,0,1,13,24.1Zm6.2-1.9a47.8,47.8,0,0,0-2.157-7.929,16.044,16.044,0,0,1,6.915.486A11.094,11.094,0,0,1,19.2,22.2Zm-2.837-9.679c-.075-.19-.155-.381-.237-.575-.229-.542-.479-1.082-.739-1.609a14.264,14.264,0,0,0,6.188-4.4A11.056,11.056,0,0,1,24.1,12.885,25.923,25.923,0,0,0,16.361,12.526Z" fill="#fff"/></g></g></svg>