<svg xmlns="http://www.w3.org/2000/svg" width="17.317" height="16.547" viewBox="0 0 17.317 16.547">
  <g id="linkedin-logo" transform="translate(0 -9.558)">
    <path id="LinkedIn" d="M17.317,19.7v6.4H13.605V20.132c0-1.5-.537-2.525-1.88-2.525a2.031,2.031,0,0,0-1.9,1.358,2.54,2.54,0,0,0-.123.9V26.1H5.985s.05-10.117,0-11.165H9.7v1.583l-.024.036H9.7v-.036a3.686,3.686,0,0,1,3.346-1.845C15.485,14.678,17.317,16.274,17.317,19.7ZM2.1,9.558a1.935,1.935,0,1,0-.049,3.859h.025A1.935,1.935,0,1,0,2.1,9.558ZM.221,26.1H3.932V14.94H.221Z" transform="translate(0)" fill="#fff"/>
  </g>
</svg>
