<svg xmlns="http://www.w3.org/2000/svg" width="20.371" height="16.547" viewBox="0 0 20.371 16.547">
  <g id="twitter-logo-silhouette" transform="translate(-0.001 -57.441)">
    <g id="Group_1" data-name="Group 1" transform="translate(0.001 57.441)">
      <path id="Path_1" data-name="Path 1" d="M20.372,59.4a8.345,8.345,0,0,1-2.4.658,4.2,4.2,0,0,0,1.837-2.31,8.425,8.425,0,0,1-2.655,1.015,4.182,4.182,0,0,0-7.121,3.81A11.864,11.864,0,0,1,1.42,58.2a4.184,4.184,0,0,0,1.293,5.578,4.179,4.179,0,0,1-1.893-.524v.052a4.183,4.183,0,0,0,3.352,4.1,4.233,4.233,0,0,1-1.1.146,4.011,4.011,0,0,1-.787-.078,4.181,4.181,0,0,0,3.9,2.9A8.384,8.384,0,0,1,1,72.165a8.88,8.88,0,0,1-1-.057,11.812,11.812,0,0,0,6.405,1.88A11.807,11.807,0,0,0,18.3,62.1l-.014-.541A8.345,8.345,0,0,0,20.372,59.4Z" transform="translate(-0.001 -57.441)" fill="#fff"/>
    </g>
  </g>
</svg>
